<svg width="66" height="66" viewBox="0 0 66 66" fill="none" xmlns="http://www.w3.org/2000/svg">
<path d="M59.9295 0H5.63474C2.63767 0 0.205261 2.42969 0.205261 5.42947V59.7242C0.205261 62.724 2.63767 65.1537 5.63474 65.1537H59.9295C62.9265 65.1537 65.359 62.724 65.359 59.7242V5.42947C65.359 2.42969 62.9265 0 59.9295 0ZM48.5629 45.7515V45.7569C48.0199 47.0654 47.1594 48.2192 46.0572 49.1069C44.917 50.0299 43.4727 50.79 41.6946 51.333C39.9192 51.8841 37.8071 52.161 35.3611 52.161H17.8999V14.1546H36.3656C39.7807 14.1546 42.5172 14.9229 44.5641 16.4893C46.6273 18.0639 47.6534 20.4094 47.6534 23.5748C47.6534 25.4887 47.1865 27.1311 46.2472 28.4885C45.3133 29.8377 43.9668 30.8937 42.2294 31.6267V31.7516C44.5478 32.2402 46.3422 33.3397 47.5231 35.05C48.704 36.7603 49.3094 38.9212 49.3094 41.53C49.3094 42.9906 49.0271 44.3805 48.495 45.6782L48.5629 45.7515Z" fill="#6B4798"/>
</svg>
