<svg width="45" height="66" viewBox="0 0 45 66" fill="none" xmlns="http://www.w3.org/2000/svg">
<path d="M0.705261 54.3002C0.705261 60.3052 5.56736 65.1537 11.5615 65.1537C17.5556 65.1537 22.415 60.2916 22.415 54.3002V21.7206H33.2821L33.2848 21.7233C39.2817 21.7233 44.1411 16.8585 44.1411 10.8671C44.1411 4.87567 39.279 0 33.2848 0H11.5615C5.56464 0 0.705261 4.86209 0.705261 10.8535C0.705261 16.8449 5.56736 21.707 11.5615 21.707C5.56464 21.7233 0.705261 26.5827 0.705261 32.5768C0.705261 38.571 5.56736 43.4304 11.5615 43.4304C5.56464 43.4304 0.705261 48.2925 0.705261 54.3002Z" fill="#6B4798"/>
</svg>
