<svg width="58" height="66" viewBox="0 0 58 66" fill="none" xmlns="http://www.w3.org/2000/svg">
<path d="M0.550278 0L5.7719 58.6208L29.202 65.1537L52.6974 58.5969L57.9232 0H0.550278ZM47.0754 13.4303L45.3373 32.9588L45.3425 33.0642L45.3352 33.3067V33.3047L44.1003 46.9593L43.9643 48.1724L29.2367 52.2458V52.2463L29.2253 52.2562L14.5232 48.1599L13.5277 36.8707H20.7373L21.2488 42.6111L29.2388 44.7766L29.2367 44.7808V44.7798L37.2564 42.5836L38.1039 33.2356H21.3391L21.1953 31.6553L20.8676 27.9532L20.6957 25.9653H38.7411L39.3975 18.695H11.9127L11.7688 17.1158L11.4417 13.4126L11.2693 11.4247H47.2473L47.0754 13.4303Z" fill="#6B4798"/>
</svg>
