<svg width="66" height="66" viewBox="0 0 66 66" fill="none" xmlns="http://www.w3.org/2000/svg">
<path d="M0.282104 65.1537H65.4358V0H0.282104V65.1537ZM53.9905 50.5728C53.2982 47.964 47.8796 47.3559 44.174 44.5868C40.4276 42.0621 39.5345 35.954 42.6293 32.4493C43.688 31.1462 45.4363 30.1689 47.2715 29.7209L49.1854 29.4793C52.891 29.3952 55.1687 30.3725 56.8789 32.2864C57.373 32.7723 57.7368 33.2637 58.4698 34.4039C56.5125 35.6228 56.5125 35.6228 53.7054 37.4579C53.0919 36.1549 52.1146 35.3404 51.0558 35.0147C49.427 34.526 47.3502 35.0527 46.943 36.8064C46.7828 37.3358 46.8208 37.8244 47.0679 38.7203C47.7276 40.227 49.9482 40.8785 51.9463 41.8151C57.6879 44.1443 59.6235 46.6419 60.0986 49.6145L59.9738 49.4326C60.4244 51.9981 59.8516 53.6676 59.7729 53.912C57.6526 61.1603 45.8435 61.4046 41.1199 56.6376C40.1426 55.4974 39.4911 54.93 38.921 53.6269L43.8889 50.7737C45.2327 52.8098 46.4516 53.912 48.6533 54.4006C51.6286 54.7671 54.642 53.7491 53.9905 50.5728ZM22.3611 51.5149C22.4072 51.5149 22.5348 51.7619 22.7058 52.0469C23.3384 53.103 23.884 53.836 24.9591 54.368C26.007 54.6965 28.3145 54.9354 29.2103 53.065C29.756 52.1202 29.585 49.0499 29.585 45.7053C29.585 40.436 29.6094 35.2074 29.6094 29.9463H35.7121L35.7013 30.0983C35.7013 35.7178 35.7339 41.2966 35.7013 46.8727C35.7149 50.3367 36.008 53.4315 34.6235 55.9562C33.6652 57.9108 31.8328 59.1731 29.7071 59.7867C26.4413 60.5196 23.3221 60.0717 21.001 58.6872C19.4427 57.7506 18.2347 56.2792 17.4067 54.5689L22.3611 51.5149Z" fill="#6B4798"/>
</svg>
